<?xml version="1.0" encoding="utf-8"?>
<!-- Generator: Adobe Illustrator 24.2.0, SVG Export Plug-In . SVG Version: 6.00 Build 0)  -->
<svg version="1.1" xmlns="http://www.w3.org/2000/svg" xmlns:xlink="http://www.w3.org/1999/xlink" x="0px" y="0px"
	 viewBox="0 0 593 948" style="enable-background:new 0 0 593 948;" xml:space="preserve">
<!--<style type="text/css">
	.st0{fill:#FFFFFF;stroke:#000000;stroke-miterlimit:10;}
	.st1{fill:#999999;stroke:#000000;stroke-miterlimit:10;}
	.st2{font-family:'Athelas-Bold';}
	.st3{font-size:23px;}
	.st4{fill:#CCCCCC;stroke:#000000;stroke-miterlimit:10;}
</style>-->
<g id="a_and_b">
	<g id="AandB">
		<path id="_x31_-left" class="st0" d="M141.5,222.8c-9.6,7.3-21.5,11.6-34.5,11.6c-31.5,0-57-25.5-57-57s25.5-57,57-57
			c12.8,0,24.7,4.2,34.2,11.4C128,142.1,119.3,158,119,176c0,0.3,0,0.7,0,1v0.4C119,195.9,127.8,212.4,141.5,222.8z"/>
		<path id="_x31_-right" class="st0" d="M233,177.4c0,31.5-25.5,57-57,57c-13,0-24.9-4.3-34.5-11.6c13.3-10.1,22-26,22.5-43.9
			c0-0.6,0-1.1,0-1.7V177c0-0.4,0-0.7,0-1.1c-0.3-18-9-33.9-22.2-44.1c9.5-7.2,21.4-11.4,34.2-11.4C207.5,120.4,233,145.9,233,177.4
			z"/>
		<path id="_x31_-middle" class="st1" d="M164,177v0.2c0,0.6,0,1.1,0,1.7c-0.6,17.8-9.3,33.4-22.5,43.5
			c-13.2-10.1-21.9-25.7-22.5-43.5c0-0.6,0-1.1,0-1.7V177c0-0.4,0-0.7,0-1.1c0.3-18,9-33.9,22.2-44.1c0.1-0.1,0.2-0.1,0.3-0.2
			c0.1,0.1,0.2,0.1,0.3,0.2c13.3,10.2,21.9,26.1,22.2,44.1C164,176.3,164,176.6,164,177z"/>
	</g>
	<text id="a_and_b_text" transform="matrix(1 0 0 1 96.6366 285.0203)" class="st2 st3">A AND B</text>
</g>
<g id="a_or_b">
	<g id="AorB">
		<path id="_x32_-left" class="st1" d="M451.1,222.8c-9.6,7.3-21.5,11.6-34.5,11.6c-31.5,0-57-25.5-57-57s25.5-57,57-57
			c13,0,24.9,4.3,34.5,11.6c-13.7,10.4-22.5,26.9-22.5,45.4S437.4,212.4,451.1,222.8z"/>
		<path id="_x32_-right" class="st1" d="M542.6,177.4c0,31.5-25.5,57-57,57c-13,0-24.9-4.3-34.5-11.6c13.7-10.4,22.5-26.9,22.5-45.4
			s-8.8-35-22.5-45.4c9.6-7.3,21.5-11.6,34.5-11.6C517.1,120.4,542.6,145.9,542.6,177.4z"/>
		<path id="_x32_-middle" class="st1" d="M473.4,177.4v0.2c0,0.6,0,1.1,0,1.7c-0.6,17.8-9.3,33.4-22.5,43.5
			c-13.2-10.1-21.9-25.7-22.5-43.5c0-0.6,0-1.1,0-1.7v-0.2c0-0.4,0-0.7,0-1.1c0.3-18,8.9-33.9,22.2-44.1c0.1-0.1,0.2-0.1,0.3-0.2
			c0.1,0.1,0.2,0.1,0.3,0.2c13.3,10.2,21.9,26.1,22.2,44.1C473.4,176.7,473.4,177.1,473.4,177.4z"/>
	</g>
	<text id="a_or_b_text" transform="matrix(1 0 0 1 414.6985 285.0204)" class="st2 st3">A OR B</text>
</g>
<g id="a_not_b">
	<g id="AnotB">
		<path id="_x33_-middle" class="st0" d="M163.8,426.6c0,18.5-8.8,35-22.5,45.4c-13.7-10.4-22.5-26.9-22.5-45.4s8.8-35,22.5-45.4
			C155,391.6,163.8,408.1,163.8,426.6z"/>
		<path id="_x33_-right" class="st0" d="M232.8,426.6c0,31.5-25.5,57-57,57c-13,0-24.9-4.3-34.5-11.6c13.7-10.4,22.5-26.9,22.5-45.4
			s-8.8-35-22.5-45.4c9.6-7.3,21.5-11.6,34.5-11.6C207.3,369.6,232.8,395.1,232.8,426.6z"/>
		<path id="_x33_-left" class="st1" d="M141.3,472c-9.6,7.3-21.5,11.6-34.5,11.6c-31.5,0-57-25.5-57-57s25.5-57,57-57
			c13,0,24.9,4.3,34.5,11.6c-13.7,10.4-22.5,26.9-22.5,45.4S127.6,461.6,141.3,472z"/>
	</g>
	<text id="a_not_b_text" transform="matrix(1 0 0 1 97.0168 534.2303)" class="st2 st3">A NOT B</text>
</g>
<g id="a_xor_b">
	<g id="AxorB">
		<path id="_x34_-middle" class="st0" d="M473.5,426.6c0,0.6,0,1.2,0,1.7s0,1-0.1,1.5c0,0.3,0,0.6-0.1,0.9c0,0.4-0.1,0.8-0.1,1.1
			c0,0.5-0.1,1-0.2,1.5c0,0.3-0.1,0.6-0.1,0.9s-0.1,0.6-0.1,0.9c-0.2,1.1-0.4,2.2-0.6,3.3c-0.1,0.5-0.2,1-0.3,1.5
			c-0.1,0.5-0.3,1.1-0.4,1.6s-0.3,1.1-0.5,1.6c-0.1,0.3-0.2,0.7-0.3,1c-0.1,0.2-0.1,0.4-0.2,0.6c-0.2,0.5-0.3,1-0.5,1.5
			s-0.4,1-0.6,1.5l0,0c-0.2,0.4-0.3,0.8-0.5,1.2c-0.2,0.6-0.5,1.2-0.8,1.7c-0.2,0.4-0.3,0.7-0.5,1.1c-0.5,1.1-1.1,2.2-1.7,3.2
			c-0.2,0.4-0.5,0.8-0.8,1.3c-0.2,0.4-0.4,0.7-0.7,1c-0.2,0.3-0.4,0.7-0.7,1c-0.2,0.4-0.5,0.7-0.7,1c-0.3,0.4-0.5,0.7-0.8,1.1
			s-0.6,0.8-0.9,1.2c-0.3,0.5-0.7,0.9-1.1,1.3c-0.3,0.4-0.6,0.8-1,1.1c-1.2,1.4-2.5,2.7-3.9,4c-0.2,0.2-0.5,0.5-0.8,0.7
			c-0.9,0.8-1.7,1.5-2.7,2.2c-0.3,0.3-0.6,0.5-1,0.8c0,0-0.1,0-0.1,0.1c-0.4-0.3-0.8-0.6-1.2-0.9c-0.1,0-0.1-0.1-0.2-0.1l-1.1-1l0,0
			c-0.8-0.7-1.6-1.4-2.3-2.1l0,0c-0.4-0.4-0.8-0.8-1.2-1.1c-0.4-0.4-0.7-0.8-1.1-1.2c-0.7-0.8-1.4-1.6-2.1-2.4c-1-1.2-2-2.5-2.9-3.8
			c-0.3-0.4-0.5-0.8-0.8-1.2c-0.4-0.5-0.7-1.1-1.1-1.6c-0.2-0.4-0.5-0.8-0.8-1.3s-0.5-1-0.8-1.4s-0.5-1-0.8-1.4s-0.5-1-0.7-1.5
			s-0.5-1-0.7-1.5s-0.4-1-0.6-1.5l0,0c-0.2-0.5-0.4-1-0.6-1.5s-0.4-1.1-0.6-1.6s-0.3-1-0.5-1.6s-0.3-1.1-0.5-1.6
			c-0.1-0.4-0.2-0.9-0.3-1.3c-0.1-0.2-0.1-0.4-0.2-0.7c-0.3-1.4-0.6-2.9-0.8-4.4c-0.1-0.3-0.1-0.6-0.1-0.9c-0.1-0.3-0.1-0.6-0.1-0.9
			c-0.1-0.5-0.1-1-0.2-1.5c0-0.4-0.1-0.8-0.1-1.1c0-0.3,0-0.6-0.1-0.9c0-0.5-0.1-1-0.1-1.5c0-0.6,0-1.1,0-1.7s0-1.2,0-1.7
			s0-1,0.1-1.5c0-0.3,0-0.6,0.1-0.9c0-0.4,0.1-0.8,0.1-1.1c0-0.5,0.1-1,0.2-1.5c0-0.3,0.1-0.6,0.1-0.9s0.1-0.6,0.1-0.9
			c0.2-1.5,0.5-3,0.8-4.4c0.1-0.2,0.1-0.4,0.2-0.7c0.1-0.5,0.2-0.9,0.3-1.3c0.1-0.5,0.3-1.1,0.5-1.6s0.3-1,0.5-1.6
			c0.2-0.5,0.4-1.1,0.6-1.6s0.4-1,0.6-1.5l0,0c0.2-0.5,0.4-1,0.6-1.5s0.4-1,0.7-1.5c0.2-0.5,0.5-1,0.7-1.5s0.5-1,0.8-1.4
			s0.5-1,0.8-1.4c0.2-0.4,0.5-0.8,0.8-1.3c0.3-0.6,0.7-1.1,1.1-1.6c0.3-0.4,0.5-0.8,0.8-1.2c0.9-1.3,1.9-2.6,2.9-3.8
			c0.7-0.8,1.4-1.6,2.1-2.4c0.4-0.4,0.7-0.8,1.1-1.2c0.4-0.4,0.8-0.8,1.2-1.1l0,0c0.8-0.7,1.5-1.4,2.3-2.1l0,0l1.1-1
			c0.1,0,0.1-0.1,0.2-0.1c0.4-0.3,0.8-0.6,1.2-0.9c0,0,0.1,0,0.1,0.1c0.3,0.2,0.7,0.5,1,0.8c0.9,0.7,1.8,1.5,2.7,2.2
			c0.2,0.2,0.5,0.5,0.8,0.7c1.3,1.3,2.6,2.6,3.9,4c0.3,0.4,0.7,0.8,1,1.1c0.4,0.4,0.7,0.9,1.1,1.3c0.3,0.4,0.6,0.8,0.9,1.2
			c0.3,0.4,0.5,0.7,0.8,1.1c0.2,0.3,0.5,0.7,0.7,1s0.4,0.6,0.7,1c0.2,0.3,0.4,0.7,0.7,1c0.2,0.4,0.5,0.8,0.8,1.3
			c0.6,1,1.2,2.1,1.7,3.2c0.2,0.4,0.4,0.7,0.5,1.1c0.3,0.6,0.5,1.1,0.8,1.7c0.2,0.4,0.4,0.8,0.5,1.2l0,0c0.2,0.5,0.4,1,0.6,1.5
			s0.4,1,0.5,1.5c0.1,0.2,0.1,0.4,0.2,0.6c0.1,0.3,0.2,0.7,0.3,1c0.2,0.5,0.3,1.1,0.5,1.6s0.3,1.1,0.4,1.6s0.2,1,0.3,1.5
			c0.2,1.1,0.4,2.2,0.6,3.3c0.1,0.3,0.1,0.6,0.1,0.9c0.1,0.3,0.1,0.6,0.1,0.9c0.1,0.5,0.1,1,0.2,1.5c0,0.4,0.1,0.8,0.1,1.1
			c0,0.3,0,0.6,0.1,0.9c0,0.5,0.1,1,0.1,1.5C473.4,425.5,473.5,426,473.5,426.6z"/>
		<path id="_x34_-left" class="st1" d="M449.8,471.1c0.4,0.3,0.8,0.6,1.2,0.9c-0.1,0.1-0.2,0.2-0.4,0.3c-0.4,0.3-0.7,0.5-1.1,0.8
			c-0.3,0.2-0.7,0.5-1,0.7c-0.1,0.1-0.2,0.1-0.3,0.2c-0.3,0.2-0.7,0.4-1,0.6c-0.4,0.2-0.8,0.5-1.2,0.7c-0.4,0.2-0.8,0.5-1.2,0.7
			c-0.3,0.2-0.7,0.4-1.1,0.6c-0.5,0.3-0.9,0.5-1.4,0.8c-0.4,0.2-0.8,0.4-1.2,0.6c-0.3,0.1-0.6,0.3-0.9,0.4c-0.2,0.1-0.5,0.2-0.8,0.3
			c-0.3,0.1-0.6,0.3-0.9,0.4s-0.7,0.3-1.1,0.4c-2.7,1.1-5.5,2-8.4,2.6c-0.4,0.1-0.8,0.2-1.2,0.3c-0.4,0.1-0.9,0.2-1.3,0.3
			c-1.9,0.3-3.8,0.6-5.8,0.7c-0.4,0-0.8,0.1-1.2,0.1c-0.2,0-0.4,0-0.7,0c-0.4,0-0.7,0-1.1,0c-0.5,0-1,0-1.5,0c-31.5,0-57-25.5-57-57
			s25.5-57,57-57c0.5,0,1,0,1.5,0c0.4,0,0.7,0,1.1,0c0.2,0,0.4,0,0.7,0c0.4,0,0.8,0,1.2,0.1c1.9,0.1,3.9,0.4,5.8,0.7
			c0.4,0.1,0.9,0.2,1.3,0.3c0.4,0.1,0.8,0.2,1.2,0.3c2.9,0.7,5.7,1.5,8.4,2.6c0.3,0.1,0.7,0.3,1.1,0.4c0.3,0.1,0.6,0.2,0.9,0.4
			c0.2,0.1,0.5,0.2,0.8,0.3c0.3,0.1,0.6,0.3,0.9,0.4c0.4,0.2,0.8,0.4,1.2,0.6c0.5,0.2,0.9,0.5,1.4,0.8c0.3,0.2,0.7,0.4,1.1,0.6
			s0.8,0.5,1.2,0.7c0.4,0.2,0.8,0.5,1.2,0.7c0.3,0.2,0.7,0.4,1,0.6c0.1,0.1,0.2,0.1,0.3,0.2c0.3,0.2,0.7,0.5,1,0.7
			c0.4,0.3,0.8,0.5,1.1,0.8c0.1,0.1,0.2,0.2,0.4,0.3c-0.4,0.3-0.8,0.6-1.2,0.9c-0.1,0-0.1,0.1-0.2,0.1l-1.1,1l0,0
			c-0.8,0.7-1.6,1.4-2.3,2.1l0,0c-0.4,0.4-0.8,0.8-1.2,1.1c-0.4,0.4-0.7,0.8-1.1,1.2c-0.7,0.8-1.4,1.6-2.1,2.4c-1,1.2-2,2.5-2.9,3.8
			c-0.3,0.4-0.5,0.8-0.8,1.2c-0.4,0.5-0.7,1.1-1.1,1.6c-0.2,0.4-0.5,0.8-0.8,1.3s-0.5,1-0.8,1.4s-0.5,1-0.8,1.4
			c-0.2,0.5-0.5,1-0.7,1.5s-0.5,1-0.7,1.5s-0.4,1-0.6,1.5l0,0c-0.2,0.5-0.4,1-0.6,1.5s-0.4,1.1-0.6,1.6s-0.3,1-0.5,1.6
			s-0.3,1.1-0.5,1.6c-0.1,0.4-0.2,0.9-0.3,1.3c-0.1,0.2-0.1,0.4-0.2,0.7c-0.3,1.4-0.6,2.9-0.8,4.4c-0.1,0.3-0.1,0.6-0.1,0.9
			c-0.1,0.3-0.1,0.6-0.1,0.9c-0.1,0.5-0.1,1-0.2,1.5c0,0.4-0.1,0.8-0.1,1.1c0,0.3,0,0.6-0.1,0.9c0,0.5-0.1,1-0.1,1.5
			c0,0.6,0,1.1,0,1.7s0,1.2,0,1.7s0,1,0.1,1.5c0,0.3,0,0.6,0.1,0.9c0,0.4,0.1,0.8,0.1,1.1c0,0.5,0.1,1,0.2,1.5
			c0,0.3,0.1,0.6,0.1,0.9s0.1,0.6,0.1,0.9c0.2,1.5,0.5,3,0.8,4.4c0.1,0.2,0.1,0.4,0.2,0.7c0.1,0.5,0.2,0.9,0.3,1.3
			c0.1,0.5,0.3,1.1,0.5,1.6s0.3,1,0.5,1.6c0.2,0.5,0.4,1.1,0.6,1.6s0.4,1,0.6,1.5l0,0c0.2,0.5,0.4,1,0.6,1.5s0.4,1,0.7,1.5
			c0.2,0.5,0.5,1,0.7,1.5s0.5,1,0.8,1.4s0.5,1,0.8,1.4c0.2,0.4,0.5,0.8,0.8,1.3c0.3,0.6,0.7,1.1,1.1,1.6c0.3,0.4,0.5,0.8,0.8,1.2
			c0.9,1.3,1.9,2.6,2.9,3.8c0.7,0.8,1.4,1.6,2.1,2.4c0.4,0.4,0.7,0.8,1.1,1.2c0.4,0.4,0.8,0.8,1.2,1.1l0,0c0.8,0.7,1.5,1.4,2.3,2.1
			l0,0l1.1,1C449.6,471,449.7,471.1,449.8,471.1z"/>
		<path id="_x34_-right" class="st1" d="M542.4,426.6c0,31.5-25.5,57-57,57c-0.5,0-1,0-1.5,0c-0.4,0-0.7,0-1.1,0c-0.2,0-0.4,0-0.7,0
			c-0.4,0-0.8,0-1.2-0.1c-1.9-0.1-3.8-0.4-5.7-0.7c-0.5-0.1-0.9-0.2-1.4-0.3c-0.4-0.1-0.8-0.2-1.2-0.3c-2.9-0.7-5.7-1.5-8.4-2.6
			c-0.4-0.1-0.7-0.3-1.1-0.4c-0.3-0.1-0.6-0.2-0.9-0.4c-0.2-0.1-0.5-0.2-0.8-0.3c-0.3-0.1-0.6-0.3-0.9-0.4c-0.4-0.2-0.8-0.4-1.2-0.6
			c-0.5-0.2-0.9-0.5-1.4-0.8c-0.3-0.2-0.7-0.4-1.1-0.6c-0.8-0.5-1.6-0.9-2.4-1.5c-0.3-0.2-0.7-0.4-1-0.6c-0.9-0.6-1.9-1.3-2.8-2
			c0,0,0.1,0,0.1-0.1c0.3-0.2,0.7-0.5,1-0.8c0.9-0.7,1.8-1.5,2.7-2.2c0.2-0.2,0.5-0.5,0.8-0.7c1.3-1.3,2.6-2.6,3.9-4
			c0.3-0.4,0.7-0.8,1-1.1c0.4-0.4,0.7-0.9,1.1-1.3c0.3-0.4,0.6-0.8,0.9-1.2c0.3-0.4,0.5-0.7,0.8-1.1c0.2-0.3,0.5-0.7,0.7-1
			s0.4-0.7,0.7-1c0.2-0.3,0.4-0.7,0.7-1c0.2-0.4,0.5-0.8,0.8-1.3c0.6-1,1.2-2.1,1.7-3.2c0.2-0.4,0.3-0.7,0.5-1.1
			c0.3-0.6,0.5-1.1,0.8-1.7c0.2-0.4,0.4-0.8,0.5-1.2l0,0c0.2-0.5,0.4-1,0.6-1.5s0.4-1,0.5-1.5c0.1-0.2,0.1-0.4,0.2-0.6
			c0.1-0.3,0.2-0.7,0.3-1c0.2-0.5,0.3-1.1,0.5-1.6s0.3-1.1,0.4-1.6s0.2-1,0.3-1.5c0.2-1.1,0.4-2.2,0.6-3.3c0.1-0.3,0.1-0.6,0.1-0.9
			c0.1-0.3,0.1-0.6,0.1-0.9c0.1-0.5,0.1-1,0.2-1.5c0-0.4,0.1-0.8,0.1-1.1c0-0.3,0-0.6,0.1-0.9c0-0.5,0.1-1,0.1-1.5
			c0-0.6,0-1.1,0-1.7s0-1.2,0-1.7s0-1-0.1-1.5c0-0.3,0-0.6-0.1-0.9c0-0.4-0.1-0.8-0.1-1.1c0-0.5-0.1-1-0.2-1.5
			c0-0.3-0.1-0.6-0.1-0.9s-0.1-0.6-0.1-0.9c-0.2-1.1-0.4-2.2-0.6-3.3c-0.1-0.5-0.2-1-0.3-1.5c-0.1-0.5-0.3-1.1-0.4-1.6
			s-0.3-1.1-0.5-1.6c-0.1-0.3-0.2-0.7-0.3-1c-0.1-0.2-0.1-0.4-0.2-0.6c-0.2-0.5-0.3-1-0.5-1.5s-0.4-1-0.6-1.5l0,0
			c-0.2-0.4-0.3-0.8-0.5-1.2c-0.2-0.6-0.5-1.2-0.8-1.7c-0.2-0.4-0.3-0.7-0.5-1.1c-0.5-1.1-1.1-2.2-1.7-3.2c-0.2-0.4-0.5-0.8-0.8-1.3
			c-0.2-0.4-0.4-0.7-0.7-1c-0.2-0.3-0.4-0.7-0.7-1c-0.2-0.4-0.5-0.7-0.7-1c-0.3-0.4-0.5-0.7-0.8-1.1s-0.6-0.8-0.9-1.2
			c-0.3-0.5-0.7-0.9-1.1-1.3c-0.3-0.4-0.6-0.8-1-1.1c-1.2-1.4-2.5-2.7-3.9-4c-0.2-0.2-0.5-0.5-0.8-0.7c-0.9-0.8-1.7-1.5-2.7-2.2
			c-0.3-0.3-0.6-0.5-1-0.8c0,0-0.1,0-0.1-0.1c0.9-0.7,1.8-1.3,2.8-2c0.3-0.2,0.7-0.4,1-0.6c0.8-0.5,1.6-1,2.4-1.5
			c0.3-0.2,0.7-0.4,1.1-0.6c0.5-0.3,0.9-0.5,1.4-0.8c0.4-0.2,0.8-0.4,1.2-0.6c0.3-0.1,0.6-0.3,0.9-0.4c0.2-0.1,0.5-0.2,0.8-0.3
			c0.3-0.1,0.6-0.3,0.9-0.4s0.7-0.3,1.1-0.4c2.7-1.1,5.5-2,8.4-2.6c0.4-0.1,0.8-0.2,1.2-0.3c0.5-0.1,0.9-0.2,1.4-0.3
			c1.9-0.3,3.8-0.6,5.7-0.7c0.4,0,0.8-0.1,1.2-0.1c0.2,0,0.4,0,0.7,0c0.4,0,0.7,0,1.1,0c0.5,0,1,0,1.5,0
			C516.9,369.6,542.4,395.1,542.4,426.6z"/>
	</g>
	<text id="a_xor_b_text" transform="matrix(1 0 0 1 406.8203 534.2305)" class="st2 st3">A XOR B</text>
</g>
<g id="_x28_a_and_b_x29__or_c">
	<g id="_x28_AandB_x29_orC">
		<path id="_x35_-bottom" class="st1" d="M198.3,728.7C194.2,756,170.5,777,142,777c-28.4,0-51.9-20.8-56.3-47.9
			c6.6,2.7,13.8,4.1,21.3,4.1c13,0,24.9-4.3,34.5-11.6c9.6,7.3,21.5,11.6,34.5,11.6C183.9,733.2,191.5,731.6,198.3,728.7z"/>
		<path id="_x35_-left" class="st0" d="M141.5,631.2C130,640,121.9,653,119.7,668C99.3,676.7,85,696.9,85,720.5
			c0,3.1,0.2,6.1,0.7,9.1C64.8,721.2,50,700.7,50,676.7c0-31.5,25.5-57,57-57C120,619.6,132,624,141.5,631.2z"/>
		<path id="_x35_-top" class="st1" d="M163.3,667.5c-6.6-2.7-13.8-4.1-21.3-4.1c-7.9,0-15.5,1.6-22.3,4.5
			c2.3-14.9,10.3-28,21.9-36.7C152.9,639.9,161,652.8,163.3,667.5z"/>
		<path id="_x35_-right" class="st0" d="M233,676.6c0,23.5-14.3,43.8-34.7,52.5c0.4-2.8,0.7-5.7,0.7-8.7c0-24-14.8-44.4-35.7-52.9
			c-2.4-14.8-10.4-27.6-21.8-36.3c9.6-7.3,21.5-11.6,34.5-11.6C207.5,619.6,233,645.2,233,676.6z"/>
		<path id="_x35_-lefty" class="st1" d="M141.5,722c-9.6,7.3-21.5,11.6-34.5,11.6c-7.5,0-14.7-1.5-21.3-4.1c-0.5-3-0.7-6-0.7-9.1
			c0-23.5,14.3-43.8,34.7-52.5c-0.4,2.8-0.7,5.7-0.7,8.7C119,695.2,127.8,711.6,141.5,722z"/>
		<path id="_x35_-righty" class="st1" d="M199,720.4c0,2.9-0.2,5.8-0.7,8.7c-6.9,2.9-14.4,4.5-22.3,4.5c-13,0-24.9-4.3-34.5-11.6
			c13.7-10.4,22.5-26.9,22.5-45.4c0-3.1-0.2-6.1-0.7-9.1C184.2,676,199,696.5,199,720.4z"/>
		<path id="_x35_-middle" class="st1" d="M164,676.6c0,18.5-8.8,35-22.5,45.4c-13.7-10.4-22.5-26.9-22.5-45.4c0-2.9,0.2-5.8,0.7-8.7
			c6.9-2.9,14.4-4.5,22.3-4.5c7.5,0,14.7,1.5,21.3,4.1C163.8,670.5,164,673.5,164,676.6z"/>
	</g>
	<text id="_x28_a_and_b_x29__or_c_text" transform="matrix(1 0 0 1 60.8724 827.6003)" class="st2 st3">(A AND B) OR C</text>
</g>
<g id="a_and__x28_b_or_c_x29_">
	<g id="Aand_x28_BorC_x29_">
		<path id="_x36_-left" class="st0" d="M451.1,631.2c-11.3,8.6-19.3,21.4-21.8,36.1c-20.7,8.5-35.2,28.9-35.2,52.7
			c0,3.2,0.3,6.3,0.8,9.3c-20.7-8.5-35.2-28.9-35.2-52.7c0-31.5,25.5-57,57-57C429.6,619.6,441.6,624,451.1,631.2z"/>
		<path id="_x36_-top" class="st1" d="M472.9,667.3c-6.7-2.8-14.1-4.3-21.8-4.3s-15.1,1.5-21.8,4.3c2.4-14.7,10.4-27.4,21.8-36.1
			C462.5,639.9,470.5,652.6,472.9,667.3z"/>
		<path id="_x36_-right" class="st4" d="M542.6,676.6c0,23.8-14.6,44.2-35.2,52.7c0.5-3,0.8-6.2,0.8-9.3c0-23.8-14.6-44.2-35.2-52.7
			c-2.4-14.7-10.4-27.4-21.8-36.1c9.6-7.3,21.5-11.6,34.5-11.6C517.1,619.6,542.6,645.2,542.6,676.6z"/>
		<path id="_x36_-middle" class="st1" d="M473.7,676.6c0,18.5-8.8,35-22.5,45.4c-13.7-10.4-22.5-26.9-22.5-45.4
			c0-3.2,0.3-6.3,0.8-9.3c6.7-2.8,14.1-4.3,21.8-4.3s15.1,1.5,21.8,4.3C473.4,670.3,473.7,673.5,473.7,676.6z"/>
		<path id="_x36_-lefty" class="st1" d="M451.1,722c-9.6,7.3-21.5,11.6-34.5,11.6c-7.7,0-15.1-1.5-21.8-4.3c-0.5-3-0.8-6.2-0.8-9.3
			c0-23.8,14.6-44.2,35.2-52.7c-0.5,3-0.8,6.2-0.8,9.3C428.6,695.2,437.4,711.6,451.1,722z"/>
		<path id="_x36_-bottom" class="st4" d="M507.4,729.3c-4.4,27-27.9,47.7-56.2,47.7s-51.8-20.6-56.2-47.7c6.7,2.8,14.1,4.3,21.8,4.3
			c13,0,24.9-4.3,34.5-11.6c9.6,7.3,21.5,11.6,34.5,11.6C493.3,733.6,500.7,732.1,507.4,729.3z"/>
		<path id="_x36_-righty" class="st4" d="M508.1,720c0,3.2-0.3,6.3-0.8,9.3c-6.7,2.8-14.1,4.3-21.8,4.3c-13,0-24.9-4.3-34.5-11.6
			c13.7-10.4,22.5-26.9,22.5-45.4c0-3.2-0.3-6.3-0.8-9.3C493.6,675.8,508.1,696.2,508.1,720z"/>
	</g>
	<text id="a_and__x28_b_or_c_x29__text" transform="matrix(1 0 0 1 370.4812 827.6006)" class="st2 st3">A AND (B OR C)</text>
</g>
</svg>
