<?xml version="1.0" encoding="utf-8"?>
<!-- Generator: Adobe Illustrator 24.1.2, SVG Export Plug-In . SVG Version: 6.00 Build 0)  -->
<svg version="1.1" xmlns="http://www.w3.org/2000/svg" xmlns:xlink="http://www.w3.org/1999/xlink" x="0px" y="0px"
	 viewBox="0 0 1920 1080" style="enable-background:new 0 0 1920 1080;" xml:space="preserve">
<style type="text/css">
	.st0{fill:#FFFFFF;stroke:#000000;stroke-miterlimit:10;}
	.st1{fill:#999999;stroke:#000000;stroke-miterlimit:10;}
	.st2{font-family:'Athelas-Bold';}
	.st3{font-size:23px;}
	.st4{fill:#CCCCCC;stroke:#000000;stroke-miterlimit:10;}
	.st5{font-size:28px;}
</style>
<g id="Laag_1">
	<g id="AandB">
		<path id="_x31_-left" class="st0" d="M805.5,248.8c-9.6,7.3-21.5,11.6-34.5,11.6c-31.5,0-57-25.5-57-57s25.5-57,57-57
			c12.8,0,24.7,4.2,34.2,11.4C792,168.1,783.3,184,783,202c0,0.3,0,0.7,0,1v0.4C783,221.9,791.8,238.4,805.5,248.8z"/>
		<path id="_x31_-right" class="st0" d="M897,203.4c0,31.5-25.5,57-57,57c-13,0-24.9-4.3-34.5-11.6c13.3-10.1,22-26,22.5-43.9
			c0-0.6,0-1.1,0-1.7V203c0-0.4,0-0.7,0-1.1c-0.3-18-9-33.9-22.2-44.1c9.5-7.2,21.4-11.4,34.2-11.4C871.5,146.4,897,171.9,897,203.4
			z"/>
		<path id="_x31_-middle" class="st1" d="M828,203v0.2c0,0.6,0,1.1,0,1.7c-0.6,17.8-9.3,33.4-22.5,43.5
			c-13.2-10.1-21.9-25.7-22.5-43.5c0-0.6,0-1.1,0-1.7V203c0-0.4,0-0.7,0-1.1c0.3-18,9-33.9,22.2-44.1c0.1-0.1,0.2-0.1,0.3-0.2
			c0.1,0.1,0.2,0.1,0.3,0.2c13.3,10.2,21.9,26.1,22.2,44.1C828,202.3,828,202.6,828,203z"/>
	</g>
	<text transform="matrix(1 0 0 1 760.6366 311.0203)" class="st2 st3">A AND B</text>
</g>
<g id="Laag_2">
	<g id="AorB">
		<path id="_x32_-left" class="st1" d="M1115.1,248.8c-9.6,7.3-21.5,11.6-34.5,11.6c-31.5,0-57-25.5-57-57s25.5-57,57-57
			c13,0,24.9,4.3,34.5,11.6c-13.7,10.4-22.5,26.9-22.5,45.4S1101.4,238.4,1115.1,248.8z"/>
		<path id="_x32_-right" class="st1" d="M1206.6,203.4c0,31.5-25.5,57-57,57c-13,0-24.9-4.3-34.5-11.6
			c13.7-10.4,22.5-26.9,22.5-45.4s-8.8-35-22.5-45.4c9.6-7.3,21.5-11.6,34.5-11.6C1181.1,146.4,1206.6,171.9,1206.6,203.4z"/>
		<path id="_x32_-middle" class="st1" d="M1137.4,203.4v0.2c0,0.6,0,1.1,0,1.7c-0.6,17.8-9.3,33.4-22.5,43.5
			c-13.2-10.1-21.9-25.7-22.5-43.5c0-0.6,0-1.1,0-1.7v-0.2c0-0.4,0-0.7,0-1.1c0.3-18,8.9-33.9,22.2-44.1c0.1-0.1,0.2-0.1,0.3-0.2
			c0.1,0.1,0.2,0.1,0.3,0.2c13.3,10.2,21.9,26.1,22.2,44.1C1137.4,202.7,1137.4,203.1,1137.4,203.4z"/>
	</g>
	<text transform="matrix(1 0 0 1 1078.6985 311.0204)" class="st2 st3">A OR B</text>
</g>
<g id="Laag_3_1_">
	<g id="AnotB">
		<path id="_x33_-middle" class="st0" d="M827.8,452.6c0,18.5-8.8,35-22.5,45.4c-13.7-10.4-22.5-26.9-22.5-45.4s8.8-35,22.5-45.4
			C819,417.6,827.8,434.1,827.8,452.6z"/>
		<path id="_x33_-right" class="st0" d="M896.8,452.6c0,31.5-25.5,57-57,57c-13,0-24.9-4.3-34.5-11.6c13.7-10.4,22.5-26.9,22.5-45.4
			s-8.8-35-22.5-45.4c9.6-7.3,21.5-11.6,34.5-11.6C871.3,395.6,896.8,421.1,896.8,452.6z"/>
		<path id="_x33_-left" class="st1" d="M805.3,498c-9.6,7.3-21.5,11.6-34.5,11.6c-31.5,0-57-25.5-57-57s25.5-57,57-57
			c13,0,24.9,4.3,34.5,11.6c-13.7,10.4-22.5,26.9-22.5,45.4S791.6,487.6,805.3,498z"/>
	</g>
	<text transform="matrix(1 0 0 1 761.0168 560.2303)" class="st2 st3">A NOT B</text>
</g>
<g id="Laag_4_1_">
	<g id="AxorB">
		<path id="_x34_-middle" class="st0" d="M1137.5,452.6c0,0.6,0,1.2,0,1.7s0,1-0.1,1.5c0,0.3,0,0.6-0.1,0.9c0,0.4-0.1,0.8-0.1,1.1
			c0,0.5-0.1,1-0.2,1.5c0,0.3-0.1,0.6-0.1,0.9s-0.1,0.6-0.1,0.9c-0.2,1.1-0.4,2.2-0.6,3.3c-0.1,0.5-0.2,1-0.3,1.5
			c-0.1,0.5-0.3,1.1-0.4,1.6s-0.3,1.1-0.5,1.6c-0.1,0.3-0.2,0.7-0.3,1c-0.1,0.2-0.1,0.4-0.2,0.6c-0.2,0.5-0.3,1-0.5,1.5
			s-0.4,1-0.6,1.5l0,0c-0.2,0.4-0.3,0.8-0.5,1.2c-0.2,0.6-0.5,1.2-0.8,1.7c-0.2,0.4-0.3,0.7-0.5,1.1c-0.5,1.1-1.1,2.2-1.7,3.2
			c-0.2,0.4-0.5,0.8-0.8,1.3c-0.2,0.4-0.4,0.7-0.7,1c-0.2,0.3-0.4,0.7-0.7,1c-0.2,0.4-0.5,0.7-0.7,1c-0.3,0.4-0.5,0.7-0.8,1.1
			s-0.6,0.8-0.9,1.2c-0.3,0.5-0.7,0.9-1.1,1.3c-0.3,0.4-0.6,0.8-1,1.1c-1.2,1.4-2.5,2.7-3.9,4c-0.2,0.2-0.5,0.5-0.8,0.7
			c-0.9,0.8-1.7,1.5-2.7,2.2c-0.3,0.3-0.6,0.5-1,0.8c0,0-0.1,0-0.1,0.1c-0.4-0.3-0.8-0.6-1.2-0.9c-0.1,0-0.1-0.1-0.2-0.1l-1.1-1l0,0
			c-0.8-0.7-1.6-1.4-2.3-2.1l0,0c-0.4-0.4-0.8-0.8-1.2-1.1c-0.4-0.4-0.7-0.8-1.1-1.2c-0.7-0.8-1.4-1.6-2.1-2.4c-1-1.2-2-2.5-2.9-3.8
			c-0.3-0.4-0.5-0.8-0.8-1.2c-0.4-0.5-0.7-1.1-1.1-1.6c-0.2-0.4-0.5-0.8-0.8-1.3s-0.5-1-0.8-1.4s-0.5-1-0.8-1.4s-0.5-1-0.7-1.5
			s-0.5-1-0.7-1.5s-0.4-1-0.6-1.5l0,0c-0.2-0.5-0.4-1-0.6-1.5s-0.4-1.1-0.6-1.6s-0.3-1-0.5-1.6s-0.3-1.1-0.5-1.6
			c-0.1-0.4-0.2-0.9-0.3-1.3c-0.1-0.2-0.1-0.4-0.2-0.7c-0.3-1.4-0.6-2.9-0.8-4.4c-0.1-0.3-0.1-0.6-0.1-0.9c-0.1-0.3-0.1-0.6-0.1-0.9
			c-0.1-0.5-0.1-1-0.2-1.5c0-0.4-0.1-0.8-0.1-1.1c0-0.3,0-0.6-0.1-0.9c0-0.5-0.1-1-0.1-1.5c0-0.6,0-1.1,0-1.7s0-1.2,0-1.7
			s0-1,0.1-1.5c0-0.3,0-0.6,0.1-0.9c0-0.4,0.1-0.8,0.1-1.1c0-0.5,0.1-1,0.2-1.5c0-0.3,0.1-0.6,0.1-0.9s0.1-0.6,0.1-0.9
			c0.2-1.5,0.5-3,0.8-4.4c0.1-0.2,0.1-0.4,0.2-0.7c0.1-0.5,0.2-0.9,0.3-1.3c0.1-0.5,0.3-1.1,0.5-1.6s0.3-1,0.5-1.6
			c0.2-0.5,0.4-1.1,0.6-1.6s0.4-1,0.6-1.5l0,0c0.2-0.5,0.4-1,0.6-1.5s0.4-1,0.7-1.5c0.2-0.5,0.5-1,0.7-1.5s0.5-1,0.8-1.4
			s0.5-1,0.8-1.4c0.2-0.4,0.5-0.8,0.8-1.3c0.3-0.6,0.7-1.1,1.1-1.6c0.3-0.4,0.5-0.8,0.8-1.2c0.9-1.3,1.9-2.6,2.9-3.8
			c0.7-0.8,1.4-1.6,2.1-2.4c0.4-0.4,0.7-0.8,1.1-1.2c0.4-0.4,0.8-0.8,1.2-1.1l0,0c0.8-0.7,1.5-1.4,2.3-2.1l0,0l1.1-1
			c0.1,0,0.1-0.1,0.2-0.1c0.4-0.3,0.8-0.6,1.2-0.9c0,0,0.1,0,0.1,0.1c0.3,0.2,0.7,0.5,1,0.8c0.9,0.7,1.8,1.5,2.7,2.2
			c0.2,0.2,0.5,0.5,0.8,0.7c1.3,1.3,2.6,2.6,3.9,4c0.3,0.4,0.7,0.8,1,1.1c0.4,0.4,0.7,0.9,1.1,1.3c0.3,0.4,0.6,0.8,0.9,1.2
			c0.3,0.4,0.5,0.7,0.8,1.1c0.2,0.3,0.5,0.7,0.7,1s0.4,0.6,0.7,1c0.2,0.3,0.4,0.7,0.7,1c0.2,0.4,0.5,0.8,0.8,1.3
			c0.6,1,1.2,2.1,1.7,3.2c0.2,0.4,0.4,0.7,0.5,1.1c0.3,0.6,0.5,1.1,0.8,1.7c0.2,0.4,0.4,0.8,0.5,1.2l0,0c0.2,0.5,0.4,1,0.6,1.5
			s0.4,1,0.5,1.5c0.1,0.2,0.1,0.4,0.2,0.6c0.1,0.3,0.2,0.7,0.3,1c0.2,0.5,0.3,1.1,0.5,1.6s0.3,1.1,0.4,1.6s0.2,1,0.3,1.5
			c0.2,1.1,0.4,2.2,0.6,3.3c0.1,0.3,0.1,0.6,0.1,0.9c0.1,0.3,0.1,0.6,0.1,0.9c0.1,0.5,0.1,1,0.2,1.5c0,0.4,0.1,0.8,0.1,1.1
			c0,0.3,0,0.6,0.1,0.9c0,0.5,0.1,1,0.1,1.5C1137.4,451.5,1137.5,452,1137.5,452.6z"/>
		<path id="_x34_-left" class="st1" d="M1113.8,497.1c0.4,0.3,0.8,0.6,1.2,0.9c-0.1,0.1-0.2,0.2-0.4,0.3c-0.4,0.3-0.7,0.5-1.1,0.8
			c-0.3,0.2-0.7,0.5-1,0.7c-0.1,0.1-0.2,0.1-0.3,0.2c-0.3,0.2-0.7,0.4-1,0.6c-0.4,0.2-0.8,0.5-1.2,0.7c-0.4,0.2-0.8,0.5-1.2,0.7
			c-0.3,0.2-0.7,0.4-1.1,0.6c-0.5,0.3-0.9,0.5-1.4,0.8c-0.4,0.2-0.8,0.4-1.2,0.6c-0.3,0.1-0.6,0.3-0.9,0.4c-0.2,0.1-0.5,0.2-0.8,0.3
			c-0.3,0.1-0.6,0.3-0.9,0.4s-0.7,0.3-1.1,0.4c-2.7,1.1-5.5,2-8.4,2.6c-0.4,0.1-0.8,0.2-1.2,0.3c-0.4,0.1-0.9,0.2-1.3,0.3
			c-1.9,0.3-3.8,0.6-5.8,0.7c-0.4,0-0.8,0.1-1.2,0.1c-0.2,0-0.4,0-0.7,0c-0.4,0-0.7,0-1.1,0c-0.5,0-1,0-1.5,0c-31.5,0-57-25.5-57-57
			s25.5-57,57-57c0.5,0,1,0,1.5,0c0.4,0,0.7,0,1.1,0c0.2,0,0.4,0,0.7,0c0.4,0,0.8,0,1.2,0.1c1.9,0.1,3.9,0.4,5.8,0.7
			c0.4,0.1,0.9,0.2,1.3,0.3c0.4,0.1,0.8,0.2,1.2,0.3c2.9,0.7,5.7,1.5,8.4,2.6c0.3,0.1,0.7,0.3,1.1,0.4c0.3,0.1,0.6,0.2,0.9,0.4
			c0.2,0.1,0.5,0.2,0.8,0.3c0.3,0.1,0.6,0.3,0.9,0.4c0.4,0.2,0.8,0.4,1.2,0.6c0.5,0.2,0.9,0.5,1.4,0.8c0.3,0.2,0.7,0.4,1.1,0.6
			s0.8,0.5,1.2,0.7c0.4,0.2,0.8,0.5,1.2,0.7c0.3,0.2,0.7,0.4,1,0.6c0.1,0.1,0.2,0.1,0.3,0.2c0.3,0.2,0.7,0.5,1,0.7
			c0.4,0.3,0.8,0.5,1.1,0.8c0.1,0.1,0.2,0.2,0.4,0.3c-0.4,0.3-0.8,0.6-1.2,0.9c-0.1,0-0.1,0.1-0.2,0.1l-1.1,1l0,0
			c-0.8,0.7-1.6,1.4-2.3,2.1l0,0c-0.4,0.4-0.8,0.8-1.2,1.1c-0.4,0.4-0.7,0.8-1.1,1.2c-0.7,0.8-1.4,1.6-2.1,2.4c-1,1.2-2,2.5-2.9,3.8
			c-0.3,0.4-0.5,0.8-0.8,1.2c-0.4,0.5-0.7,1.1-1.1,1.6c-0.2,0.4-0.5,0.8-0.8,1.3s-0.5,1-0.8,1.4s-0.5,1-0.8,1.4
			c-0.2,0.5-0.5,1-0.7,1.5s-0.5,1-0.7,1.5s-0.4,1-0.6,1.5l0,0c-0.2,0.5-0.4,1-0.6,1.5s-0.4,1.1-0.6,1.6s-0.3,1-0.5,1.6
			s-0.3,1.1-0.5,1.6c-0.1,0.4-0.2,0.9-0.3,1.3c-0.1,0.2-0.1,0.4-0.2,0.7c-0.3,1.4-0.6,2.9-0.8,4.4c-0.1,0.3-0.1,0.6-0.1,0.9
			c-0.1,0.3-0.1,0.6-0.1,0.9c-0.1,0.5-0.1,1-0.2,1.5c0,0.4-0.1,0.8-0.1,1.1c0,0.3,0,0.6-0.1,0.9c0,0.5-0.1,1-0.1,1.5
			c0,0.6,0,1.1,0,1.7s0,1.2,0,1.7s0,1,0.1,1.5c0,0.3,0,0.6,0.1,0.9c0,0.4,0.1,0.8,0.1,1.1c0,0.5,0.1,1,0.2,1.5
			c0,0.3,0.1,0.6,0.1,0.9s0.1,0.6,0.1,0.9c0.2,1.5,0.5,3,0.8,4.4c0.1,0.2,0.1,0.4,0.2,0.7c0.1,0.5,0.2,0.9,0.3,1.3
			c0.1,0.5,0.3,1.1,0.5,1.6s0.3,1,0.5,1.6c0.2,0.5,0.4,1.1,0.6,1.6s0.4,1,0.6,1.5l0,0c0.2,0.5,0.4,1,0.6,1.5s0.4,1,0.7,1.5
			c0.2,0.5,0.5,1,0.7,1.5s0.5,1,0.8,1.4s0.5,1,0.8,1.4c0.2,0.4,0.5,0.8,0.8,1.3c0.3,0.6,0.7,1.1,1.1,1.6c0.3,0.4,0.5,0.8,0.8,1.2
			c0.9,1.3,1.9,2.6,2.9,3.8c0.7,0.8,1.4,1.6,2.1,2.4c0.4,0.4,0.7,0.8,1.1,1.2c0.4,0.4,0.8,0.8,1.2,1.1l0,0c0.8,0.7,1.5,1.4,2.3,2.1
			l0,0l1.1,1C1113.6,497,1113.7,497.1,1113.8,497.1z"/>
		<path id="_x34_-right" class="st1" d="M1206.4,452.6c0,31.5-25.5,57-57,57c-0.5,0-1,0-1.5,0c-0.4,0-0.7,0-1.1,0
			c-0.2,0-0.4,0-0.7,0c-0.4,0-0.8,0-1.2-0.1c-1.9-0.1-3.8-0.4-5.7-0.7c-0.5-0.1-0.9-0.2-1.4-0.3c-0.4-0.1-0.8-0.2-1.2-0.3
			c-2.9-0.7-5.7-1.5-8.4-2.6c-0.4-0.1-0.7-0.3-1.1-0.4c-0.3-0.1-0.6-0.2-0.9-0.4c-0.2-0.1-0.5-0.2-0.8-0.3c-0.3-0.1-0.6-0.3-0.9-0.4
			c-0.4-0.2-0.8-0.4-1.2-0.6c-0.5-0.2-0.9-0.5-1.4-0.8c-0.3-0.2-0.7-0.4-1.1-0.6c-0.8-0.5-1.6-0.9-2.4-1.5c-0.3-0.2-0.7-0.4-1-0.6
			c-0.9-0.6-1.9-1.3-2.8-2c0,0,0.1,0,0.1-0.1c0.3-0.2,0.7-0.5,1-0.8c0.9-0.7,1.8-1.5,2.7-2.2c0.2-0.2,0.5-0.5,0.8-0.7
			c1.3-1.3,2.6-2.6,3.9-4c0.3-0.4,0.7-0.8,1-1.1c0.4-0.4,0.7-0.9,1.1-1.3c0.3-0.4,0.6-0.8,0.9-1.2c0.3-0.4,0.5-0.7,0.8-1.1
			c0.2-0.3,0.5-0.7,0.7-1s0.4-0.7,0.7-1c0.2-0.3,0.4-0.7,0.7-1c0.2-0.4,0.5-0.8,0.8-1.3c0.6-1,1.2-2.1,1.7-3.2
			c0.2-0.4,0.3-0.7,0.5-1.1c0.3-0.6,0.5-1.1,0.8-1.7c0.2-0.4,0.4-0.8,0.5-1.2l0,0c0.2-0.5,0.4-1,0.6-1.5s0.4-1,0.5-1.5
			c0.1-0.2,0.1-0.4,0.2-0.6c0.1-0.3,0.2-0.7,0.3-1c0.2-0.5,0.3-1.1,0.5-1.6s0.3-1.1,0.4-1.6s0.2-1,0.3-1.5c0.2-1.1,0.4-2.2,0.6-3.3
			c0.1-0.3,0.1-0.6,0.1-0.9c0.1-0.3,0.1-0.6,0.1-0.9c0.1-0.5,0.1-1,0.2-1.5c0-0.4,0.1-0.8,0.1-1.1c0-0.3,0-0.6,0.1-0.9
			c0-0.5,0.1-1,0.1-1.5c0-0.6,0-1.1,0-1.7s0-1.2,0-1.7s0-1-0.1-1.5c0-0.3,0-0.6-0.1-0.9c0-0.4-0.1-0.8-0.1-1.1c0-0.5-0.1-1-0.2-1.5
			c0-0.3-0.1-0.6-0.1-0.9s-0.1-0.6-0.1-0.9c-0.2-1.1-0.4-2.2-0.6-3.3c-0.1-0.5-0.2-1-0.3-1.5c-0.1-0.5-0.3-1.1-0.4-1.6
			s-0.3-1.1-0.5-1.6c-0.1-0.3-0.2-0.7-0.3-1c-0.1-0.2-0.1-0.4-0.2-0.6c-0.2-0.5-0.3-1-0.5-1.5s-0.4-1-0.6-1.5l0,0
			c-0.2-0.4-0.3-0.8-0.5-1.2c-0.2-0.6-0.5-1.2-0.8-1.7c-0.2-0.4-0.3-0.7-0.5-1.1c-0.5-1.1-1.1-2.2-1.7-3.2c-0.2-0.4-0.5-0.8-0.8-1.3
			c-0.2-0.4-0.4-0.7-0.7-1c-0.2-0.3-0.4-0.7-0.7-1c-0.2-0.4-0.5-0.7-0.7-1c-0.3-0.4-0.5-0.7-0.8-1.1s-0.6-0.8-0.9-1.2
			c-0.3-0.5-0.7-0.9-1.1-1.3c-0.3-0.4-0.6-0.8-1-1.1c-1.2-1.4-2.5-2.7-3.9-4c-0.2-0.2-0.5-0.5-0.8-0.7c-0.9-0.8-1.7-1.5-2.7-2.2
			c-0.3-0.3-0.6-0.5-1-0.8c0,0-0.1,0-0.1-0.1c0.9-0.7,1.8-1.3,2.8-2c0.3-0.2,0.7-0.4,1-0.6c0.8-0.5,1.6-1,2.4-1.5
			c0.3-0.2,0.7-0.4,1.1-0.6c0.5-0.3,0.9-0.5,1.4-0.8c0.4-0.2,0.8-0.4,1.2-0.6c0.3-0.1,0.6-0.3,0.9-0.4c0.2-0.1,0.5-0.2,0.8-0.3
			c0.3-0.1,0.6-0.3,0.9-0.4s0.7-0.3,1.1-0.4c2.7-1.1,5.5-2,8.4-2.6c0.4-0.1,0.8-0.2,1.2-0.3c0.5-0.1,0.9-0.2,1.4-0.3
			c1.9-0.3,3.8-0.6,5.7-0.7c0.4,0,0.8-0.1,1.2-0.1c0.2,0,0.4,0,0.7,0c0.4,0,0.7,0,1.1,0c0.5,0,1,0,1.5,0
			C1180.9,395.6,1206.4,421.1,1206.4,452.6z"/>
	</g>
	<text transform="matrix(1 0 0 1 1070.8203 560.2305)" class="st2 st3">A XOR B</text>
</g>
<g id="Laag_5_1_">
	<g id="_x28_AandB_x29_orC">
		<path id="_x35_-bottom" class="st1" d="M862.3,754.7C858.2,782,834.5,803,806,803c-28.4,0-51.9-20.8-56.3-47.9
			c6.6,2.7,13.8,4.1,21.3,4.1c13,0,24.9-4.3,34.5-11.6c9.6,7.3,21.5,11.6,34.5,11.6C847.9,759.2,855.5,757.6,862.3,754.7z"/>
		<path id="_x35_-left" class="st0" d="M805.5,657.2C794,666,785.9,679,783.7,694c-20.4,8.7-34.7,28.9-34.7,52.5
			c0,3.1,0.2,6.1,0.7,9.1c-20.9-8.4-35.7-28.9-35.7-52.9c0-31.5,25.5-57,57-57C784,645.6,796,650,805.5,657.2z"/>
		<path id="_x35_-top" class="st1" d="M827.3,693.5c-6.6-2.7-13.8-4.1-21.3-4.1c-7.9,0-15.5,1.6-22.3,4.5
			c2.3-14.9,10.3-28,21.9-36.7C816.9,665.9,825,678.8,827.3,693.5z"/>
		<path id="_x35_-right" class="st0" d="M897,702.6c0,23.5-14.3,43.8-34.7,52.5c0.4-2.8,0.7-5.7,0.7-8.7c0-24-14.8-44.4-35.7-52.9
			c-2.4-14.8-10.4-27.6-21.8-36.3c9.6-7.3,21.5-11.6,34.5-11.6C871.5,645.6,897,671.2,897,702.6z"/>
		<path id="_x35_-lefty" class="st1" d="M805.5,748c-9.6,7.3-21.5,11.6-34.5,11.6c-7.5,0-14.7-1.5-21.3-4.1c-0.5-3-0.7-6-0.7-9.1
			c0-23.5,14.3-43.8,34.7-52.5c-0.4,2.8-0.7,5.7-0.7,8.7C783,721.2,791.8,737.6,805.5,748z"/>
		<path id="_x35_-righty" class="st1" d="M863,746.4c0,2.9-0.2,5.8-0.7,8.7c-6.9,2.9-14.4,4.5-22.3,4.5c-13,0-24.9-4.3-34.5-11.6
			c13.7-10.4,22.5-26.9,22.5-45.4c0-3.1-0.2-6.1-0.7-9.1C848.2,702,863,722.5,863,746.4z"/>
		<path id="_x35_-middle" class="st1" d="M828,702.6c0,18.5-8.8,35-22.5,45.4c-13.7-10.4-22.5-26.9-22.5-45.4c0-2.9,0.2-5.8,0.7-8.7
			c6.9-2.9,14.4-4.5,22.3-4.5c7.5,0,14.7,1.5,21.3,4.1C827.8,696.5,828,699.5,828,702.6z"/>
	</g>
	<text transform="matrix(1 0 0 1 724.8724 853.6003)" class="st2 st3">(A AND B) OR C</text>
</g>
<g id="Laag_6_1_">
	<g id="Aand_x28_BorC_x29_">
		<path id="_x36_-left" class="st0" d="M1115.1,657.2c-11.3,8.6-19.3,21.4-21.8,36.1c-20.7,8.5-35.2,28.9-35.2,52.7
			c0,3.2,0.3,6.3,0.8,9.3c-20.7-8.5-35.2-28.9-35.2-52.7c0-31.5,25.5-57,57-57C1093.6,645.6,1105.6,650,1115.1,657.2z"/>
		<path id="_x36_-top" class="st1" d="M1136.9,693.3c-6.7-2.8-14.1-4.3-21.8-4.3s-15.1,1.5-21.8,4.3c2.4-14.7,10.4-27.4,21.8-36.1
			C1126.5,665.9,1134.5,678.6,1136.9,693.3z"/>
		<path id="_x36_-right" class="st4" d="M1206.6,702.6c0,23.8-14.6,44.2-35.2,52.7c0.5-3,0.8-6.2,0.8-9.3
			c0-23.8-14.6-44.2-35.2-52.7c-2.4-14.7-10.4-27.4-21.8-36.1c9.6-7.3,21.5-11.6,34.5-11.6C1181.1,645.6,1206.6,671.2,1206.6,702.6z
			"/>
		<path id="_x36_-middle" class="st1" d="M1137.7,702.6c0,18.5-8.8,35-22.5,45.4c-13.7-10.4-22.5-26.9-22.5-45.4
			c0-3.2,0.3-6.3,0.8-9.3c6.7-2.8,14.1-4.3,21.8-4.3s15.1,1.5,21.8,4.3C1137.4,696.3,1137.7,699.5,1137.7,702.6z"/>
		<path id="_x36_-lefty" class="st1" d="M1115.1,748c-9.6,7.3-21.5,11.6-34.5,11.6c-7.7,0-15.1-1.5-21.8-4.3c-0.5-3-0.8-6.2-0.8-9.3
			c0-23.8,14.6-44.2,35.2-52.7c-0.5,3-0.8,6.2-0.8,9.3C1092.6,721.2,1101.4,737.6,1115.1,748z"/>
		<path id="_x36_-bottom" class="st4" d="M1171.4,755.3c-4.4,27-27.9,47.7-56.2,47.7s-51.8-20.6-56.2-47.7
			c6.7,2.8,14.1,4.3,21.8,4.3c13,0,24.9-4.3,34.5-11.6c9.6,7.3,21.5,11.6,34.5,11.6C1157.3,759.6,1164.7,758.1,1171.4,755.3z"/>
		<path id="_x36_-righty" class="st4" d="M1172.1,746c0,3.2-0.3,6.3-0.8,9.3c-6.7,2.8-14.1,4.3-21.8,4.3c-13,0-24.9-4.3-34.5-11.6
			c13.7-10.4,22.5-26.9,22.5-45.4c0-3.2-0.3-6.3-0.8-9.3C1157.6,701.8,1172.1,722.2,1172.1,746z"/>
	</g>
	<text transform="matrix(1 0 0 1 1034.4812 853.6006)" class="st2 st3">A AND (B OR C)</text>
</g>
<g id="Laag_7_1_">
	<text transform="matrix(1 0 0 1 846.2239 996.6084)" class="st2 st5">Boolean Operators</text>
</g>
</svg>
